<svg xmlns="http://www.w3.org/2000/svg" xmlns:xlink="http://www.w3.org/1999/xlink" viewBox="0 0 1280 600" width="1280"  height="600" >

<title>Gnuplot</title>
<desc>Produced by GNUPLOT 4.6 patchlevel 2 </desc>

<g id="gnuplot_canvas">

<rect x="0" y="0" width="1280" height="600" fill="none"/>
<defs>

	<circle id="gpDot" r="0.5" stroke-width="0.5"/>
	<path id="gpPt0" stroke-width="0.222" stroke="currentColor" d="M-1,0 h2 M0,-1 v2"/>
	<path id="gpPt1" stroke-width="0.222" stroke="currentColor" d="M-1,-1 L1,1 M1,-1 L-1,1"/>
	<path id="gpPt2" stroke-width="0.222" stroke="currentColor" d="M-1,0 L1,0 M0,-1 L0,1 M-1,-1 L1,1 M-1,1 L1,-1"/>
	<rect id="gpPt3" stroke-width="0.222" stroke="currentColor" x="-1" y="-1" width="2" height="2"/>
	<rect id="gpPt4" stroke-width="0.222" stroke="currentColor" fill="currentColor" x="-1" y="-1" width="2" height="2"/>
	<circle id="gpPt5" stroke-width="0.222" stroke="currentColor" cx="0" cy="0" r="1"/>
	<use xlink:href="#gpPt5" id="gpPt6" fill="currentColor" stroke="none"/>
	<path id="gpPt7" stroke-width="0.222" stroke="currentColor" d="M0,-1.33 L-1.33,0.67 L1.33,0.67 z"/>
	<use xlink:href="#gpPt7" id="gpPt8" fill="currentColor" stroke="none"/>
	<use xlink:href="#gpPt7" id="gpPt9" stroke="currentColor" transform="rotate(180)"/>
	<use xlink:href="#gpPt9" id="gpPt10" fill="currentColor" stroke="none"/>
	<use xlink:href="#gpPt3" id="gpPt11" stroke="currentColor" transform="rotate(45)"/>
	<use xlink:href="#gpPt11" id="gpPt12" fill="currentColor" stroke="none"/>
</defs>
<g style="fill:none; color:white; stroke:currentColor; stroke-width:1.00; stroke-linecap:butt; stroke-linejoin:miter">
</g>
<g style="fill:none; color:white; stroke:currentColor; stroke-width:3.00; stroke-linecap:butt; stroke-linejoin:miter">
</g>
<g style="fill:none; color:red; stroke:currentColor; stroke-width:3.00; stroke-linecap:butt; stroke-linejoin:miter">
</g>
<g style="fill:none; color:red; stroke:rgb( 85,  85,  85); stroke-width:1.00; stroke-linecap:butt; stroke-linejoin:miter">
	<path stroke="rgb(204, 204, 204)" class="gridline" d="M79.5,555.0 L1255.0,555.0  h0.01"/></g>
<g style="fill:none; color:red; stroke:rgb(204, 204, 204); stroke-width:3.00; stroke-linecap:butt; stroke-linejoin:miter">
	<path stroke="rgb( 85,  85,  85)" d="M79.5,555.0 L70.5,555.0  h0.01"/>	<g transform="translate(62.2,559.5)" style="stroke:none; fill:rgb(85,85,85); font-family:Arial; font-size:12.00pt; text-anchor:end">
		<text><tspan> 4000</tspan></text>
	</g>
</g>
<g style="fill:none; color:red; stroke:rgb( 85,  85,  85); stroke-width:1.00; stroke-linecap:butt; stroke-linejoin:miter">
	<path stroke="rgb(204, 204, 204)" class="gridline" d="M79.5,495.2 L1255.0,495.2  h0.01"/></g>
<g style="fill:none; color:red; stroke:rgb(204, 204, 204); stroke-width:3.00; stroke-linecap:butt; stroke-linejoin:miter">
	<path stroke="rgb( 85,  85,  85)" d="M79.5,495.2 L70.5,495.2  h0.01"/>	<g transform="translate(62.2,499.7)" style="stroke:none; fill:rgb(85,85,85); font-family:Arial; font-size:12.00pt; text-anchor:end">
		<text><tspan> 6000</tspan></text>
	</g>
</g>
<g style="fill:none; color:red; stroke:rgb( 85,  85,  85); stroke-width:1.00; stroke-linecap:butt; stroke-linejoin:miter">
	<path stroke="rgb(204, 204, 204)" class="gridline" d="M79.5,435.4 L1255.0,435.4  h0.01"/></g>
<g style="fill:none; color:red; stroke:rgb(204, 204, 204); stroke-width:3.00; stroke-linecap:butt; stroke-linejoin:miter">
	<path stroke="rgb( 85,  85,  85)" d="M79.5,435.4 L70.5,435.4  h0.01"/>	<g transform="translate(62.2,439.9)" style="stroke:none; fill:rgb(85,85,85); font-family:Arial; font-size:12.00pt; text-anchor:end">
		<text><tspan> 8000</tspan></text>
	</g>
</g>
<g style="fill:none; color:red; stroke:rgb( 85,  85,  85); stroke-width:1.00; stroke-linecap:butt; stroke-linejoin:miter">
	<path stroke="rgb(204, 204, 204)" class="gridline" d="M79.5,375.6 L1255.0,375.6  h0.01"/></g>
<g style="fill:none; color:red; stroke:rgb(204, 204, 204); stroke-width:3.00; stroke-linecap:butt; stroke-linejoin:miter">
	<path stroke="rgb( 85,  85,  85)" d="M79.5,375.6 L70.5,375.6  h0.01"/>	<g transform="translate(62.2,380.1)" style="stroke:none; fill:rgb(85,85,85); font-family:Arial; font-size:12.00pt; text-anchor:end">
		<text><tspan> 10000</tspan></text>
	</g>
</g>
<g style="fill:none; color:red; stroke:rgb( 85,  85,  85); stroke-width:1.00; stroke-linecap:butt; stroke-linejoin:miter">
	<path stroke="rgb(204, 204, 204)" class="gridline" d="M79.5,315.8 L1255.0,315.8  h0.01"/></g>
<g style="fill:none; color:red; stroke:rgb(204, 204, 204); stroke-width:3.00; stroke-linecap:butt; stroke-linejoin:miter">
	<path stroke="rgb( 85,  85,  85)" d="M79.5,315.8 L70.5,315.8  h0.01"/>	<g transform="translate(62.2,320.3)" style="stroke:none; fill:rgb(85,85,85); font-family:Arial; font-size:12.00pt; text-anchor:end">
		<text><tspan> 12000</tspan></text>
	</g>
</g>
<g style="fill:none; color:red; stroke:rgb( 85,  85,  85); stroke-width:1.00; stroke-linecap:butt; stroke-linejoin:miter">
	<path stroke="rgb(204, 204, 204)" class="gridline" d="M79.5,255.9 L1255.0,255.9  h0.01"/></g>
<g style="fill:none; color:red; stroke:rgb(204, 204, 204); stroke-width:3.00; stroke-linecap:butt; stroke-linejoin:miter">
	<path stroke="rgb( 85,  85,  85)" d="M79.5,255.9 L70.5,255.9  h0.01"/>	<g transform="translate(62.2,260.4)" style="stroke:none; fill:rgb(85,85,85); font-family:Arial; font-size:12.00pt; text-anchor:end">
		<text><tspan> 14000</tspan></text>
	</g>
</g>
<g style="fill:none; color:red; stroke:rgb( 85,  85,  85); stroke-width:1.00; stroke-linecap:butt; stroke-linejoin:miter">
	<path stroke="rgb(204, 204, 204)" class="gridline" d="M79.5,196.1 L1255.0,196.1  h0.01"/></g>
<g style="fill:none; color:red; stroke:rgb(204, 204, 204); stroke-width:3.00; stroke-linecap:butt; stroke-linejoin:miter">
	<path stroke="rgb( 85,  85,  85)" d="M79.5,196.1 L70.5,196.1  h0.01"/>	<g transform="translate(62.2,200.6)" style="stroke:none; fill:rgb(85,85,85); font-family:Arial; font-size:12.00pt; text-anchor:end">
		<text><tspan> 16000</tspan></text>
	</g>
</g>
<g style="fill:none; color:red; stroke:rgb( 85,  85,  85); stroke-width:1.00; stroke-linecap:butt; stroke-linejoin:miter">
	<path stroke="rgb(204, 204, 204)" class="gridline" d="M79.5,136.3 L1255.0,136.3  h0.01"/></g>
<g style="fill:none; color:red; stroke:rgb(204, 204, 204); stroke-width:3.00; stroke-linecap:butt; stroke-linejoin:miter">
	<path stroke="rgb( 85,  85,  85)" d="M79.5,136.3 L70.5,136.3  h0.01"/>	<g transform="translate(62.2,140.8)" style="stroke:none; fill:rgb(85,85,85); font-family:Arial; font-size:12.00pt; text-anchor:end">
		<text><tspan> 18000</tspan></text>
	</g>
</g>
<g style="fill:none; color:red; stroke:rgb( 85,  85,  85); stroke-width:1.00; stroke-linecap:butt; stroke-linejoin:miter">
	<path stroke="rgb(204, 204, 204)" class="gridline" d="M79.5,76.5 L1255.0,76.5  h0.01"/></g>
<g style="fill:none; color:red; stroke:rgb(204, 204, 204); stroke-width:3.00; stroke-linecap:butt; stroke-linejoin:miter">
	<path stroke="rgb( 85,  85,  85)" d="M79.5,76.5 L70.5,76.5  h0.01"/>	<g transform="translate(62.2,81.0)" style="stroke:none; fill:rgb(85,85,85); font-family:Arial; font-size:12.00pt; text-anchor:end">
		<text><tspan> 20000</tspan></text>
	</g>
</g>
<g style="fill:none; color:red; stroke:rgb( 85,  85,  85); stroke-width:1.00; stroke-linecap:butt; stroke-linejoin:miter">
	<path stroke="rgb(204, 204, 204)" class="gridline" d="M79.5,16.7 L1255.0,16.7  h0.01"/></g>
<g style="fill:none; color:red; stroke:rgb(204, 204, 204); stroke-width:3.00; stroke-linecap:butt; stroke-linejoin:miter">
	<path stroke="rgb( 85,  85,  85)" d="M79.5,16.7 L70.5,16.7  h0.01"/>	<g transform="translate(62.2,21.2)" style="stroke:none; fill:rgb(85,85,85); font-family:Arial; font-size:12.00pt; text-anchor:end">
		<text><tspan> 22000</tspan></text>
	</g>
</g>
<g style="fill:none; color:red; stroke:rgb( 85,  85,  85); stroke-width:1.00; stroke-linecap:butt; stroke-linejoin:miter">
	<path stroke="rgb(204, 204, 204)" class="gridline" d="M79.5,555.0 L79.5,16.7  h0.01"/></g>
<g style="fill:none; color:red; stroke:rgb(204, 204, 204); stroke-width:3.00; stroke-linecap:butt; stroke-linejoin:miter">
	<path stroke="rgb( 85,  85,  85)" d="M79.5,555.0 L79.5,564.0  h0.01"/>	<g transform="translate(79.5,586.5)" style="stroke:none; fill:rgb(85,85,85); font-family:Arial; font-size:12.00pt; text-anchor:middle">
		<text><tspan>Mon</tspan></text>
	</g>
</g>
<g style="fill:none; color:red; stroke:rgb( 85,  85,  85); stroke-width:1.00; stroke-linecap:butt; stroke-linejoin:miter">
	<path stroke="rgb(204, 204, 204)" class="gridline" d="M275.4,555.0 L275.4,16.7  h0.01"/></g>
<g style="fill:none; color:red; stroke:rgb(204, 204, 204); stroke-width:3.00; stroke-linecap:butt; stroke-linejoin:miter">
	<path stroke="rgb( 85,  85,  85)" d="M275.4,555.0 L275.4,564.0  h0.01"/>	<g transform="translate(275.4,586.5)" style="stroke:none; fill:rgb(85,85,85); font-family:Arial; font-size:12.00pt; text-anchor:middle">
		<text><tspan>Tue</tspan></text>
	</g>
</g>
<g style="fill:none; color:red; stroke:rgb( 85,  85,  85); stroke-width:1.00; stroke-linecap:butt; stroke-linejoin:miter">
	<path stroke="rgb(204, 204, 204)" class="gridline" d="M471.3,555.0 L471.3,16.7  h0.01"/></g>
<g style="fill:none; color:red; stroke:rgb(204, 204, 204); stroke-width:3.00; stroke-linecap:butt; stroke-linejoin:miter">
	<path stroke="rgb( 85,  85,  85)" d="M471.3,555.0 L471.3,564.0  h0.01"/>	<g transform="translate(471.3,586.5)" style="stroke:none; fill:rgb(85,85,85); font-family:Arial; font-size:12.00pt; text-anchor:middle">
		<text><tspan>Wed</tspan></text>
	</g>
</g>
<g style="fill:none; color:red; stroke:rgb( 85,  85,  85); stroke-width:1.00; stroke-linecap:butt; stroke-linejoin:miter">
	<path stroke="rgb(204, 204, 204)" class="gridline" d="M667.3,555.0 L667.3,16.7  h0.01"/></g>
<g style="fill:none; color:red; stroke:rgb(204, 204, 204); stroke-width:3.00; stroke-linecap:butt; stroke-linejoin:miter">
	<path stroke="rgb( 85,  85,  85)" d="M667.3,555.0 L667.3,564.0  h0.01"/>	<g transform="translate(667.3,586.5)" style="stroke:none; fill:rgb(85,85,85); font-family:Arial; font-size:12.00pt; text-anchor:middle">
		<text><tspan>Thu</tspan></text>
	</g>
</g>
<g style="fill:none; color:red; stroke:rgb( 85,  85,  85); stroke-width:1.00; stroke-linecap:butt; stroke-linejoin:miter">
	<path stroke="rgb(204, 204, 204)" class="gridline" d="M863.2,555.0 L863.2,16.7  h0.01"/></g>
<g style="fill:none; color:red; stroke:rgb(204, 204, 204); stroke-width:3.00; stroke-linecap:butt; stroke-linejoin:miter">
	<path stroke="rgb( 85,  85,  85)" d="M863.2,555.0 L863.2,564.0  h0.01"/>	<g transform="translate(863.2,586.5)" style="stroke:none; fill:rgb(85,85,85); font-family:Arial; font-size:12.00pt; text-anchor:middle">
		<text><tspan>Fri</tspan></text>
	</g>
</g>
<g style="fill:none; color:red; stroke:rgb( 85,  85,  85); stroke-width:1.00; stroke-linecap:butt; stroke-linejoin:miter">
	<path stroke="rgb(204, 204, 204)" class="gridline" d="M1059.1,555.0 L1059.1,16.7  h0.01"/></g>
<g style="fill:none; color:red; stroke:rgb(204, 204, 204); stroke-width:3.00; stroke-linecap:butt; stroke-linejoin:miter">
	<path stroke="rgb( 85,  85,  85)" d="M1059.1,555.0 L1059.1,564.0  h0.01"/>	<g transform="translate(1059.1,586.5)" style="stroke:none; fill:rgb(85,85,85); font-family:Arial; font-size:12.00pt; text-anchor:middle">
		<text><tspan>Sat</tspan></text>
	</g>
</g>
<g style="fill:none; color:red; stroke:rgb( 85,  85,  85); stroke-width:1.00; stroke-linecap:butt; stroke-linejoin:miter">
	<path stroke="rgb(204, 204, 204)" class="gridline" d="M1255.0,555.0 L1255.0,16.7  h0.01"/></g>
<g style="fill:none; color:red; stroke:rgb(204, 204, 204); stroke-width:3.00; stroke-linecap:butt; stroke-linejoin:miter">
	<path stroke="rgb( 85,  85,  85)" d="M1255.0,555.0 L1255.0,564.0  h0.01"/>	<g transform="translate(1255.0,586.5)" style="stroke:none; fill:rgb(85,85,85); font-family:Arial; font-size:12.00pt; text-anchor:middle">
		<text><tspan>Sun</tspan></text>
	</g>
	<path stroke="rgb( 85,  85,  85)" d="M79.5,16.7 L79.5,555.0 L1255.0,555.0 M1255.0,16.7 M79.5,16.7  h0.01"/></g>
	<g id="gnuplot_plot_1"><title>gnuplot_plot_1</title>
<g style="fill:none; color:white; stroke:rgb( 85,  85,  85); stroke-width:2.00; stroke-linecap:butt; stroke-linejoin:miter">
</g>
<g style="fill:none; color:red; stroke:currentColor; stroke-width:2.00; stroke-linecap:butt; stroke-linejoin:miter">
	<path stroke="rgb( 93, 109, 126)" d="M79.5,169.5 L80.7,168.9 L81.9,168.3 L83.0,167.6 L84.2,167.0 L85.4,166.4 L86.6,165.8 L87.7,165.2    L88.9,164.6 L90.1,163.9 L91.3,163.3 L92.4,162.7 L93.6,162.1 L94.8,161.6 L96.0,161.0 L97.2,160.4    L98.3,159.8 L99.5,159.2 L100.7,158.7 L101.9,158.1 L103.0,157.5 L104.2,157.0 L105.4,156.4 L106.6,155.9    L107.7,155.3 L108.9,154.8 L110.1,154.3 L111.3,153.7 L112.4,153.2 L113.6,152.7 L114.8,152.1 L116.0,151.6    L117.2,151.1 L118.3,150.6 L119.5,150.1 L120.7,149.6 L121.9,149.1 L123.0,148.6 L124.2,148.1 L125.4,147.6    L126.6,147.1 L127.7,146.6 L128.9,146.2 L130.1,145.7 L131.3,145.2 L132.5,144.8 L133.6,144.3 L134.8,143.8    L136.0,143.4 L137.2,142.9 L138.3,142.5 L139.5,142.1 L140.7,141.6 L141.9,141.2 L143.0,140.8 L144.2,140.3    L145.4,139.9 L146.6,139.5 L147.7,139.1 L148.9,138.7 L150.1,138.2 L151.3,137.8 L152.5,137.4 L153.6,137.0    L154.8,136.7 L156.0,136.3 L157.2,135.9 L158.3,135.5 L159.5,135.1 L160.7,134.7 L161.9,134.4 L163.0,134.0    L164.2,133.6 L165.4,133.3 L166.6,132.9 L167.8,132.6 L168.9,132.2 L170.1,131.9 L171.3,131.5 L172.5,131.2    L173.6,130.9 L174.8,130.5 L176.0,130.2 L177.2,129.9 L178.3,129.5 L179.5,129.2 L180.7,128.9 L181.9,128.6    L183.0,128.3 L184.2,128.0 L185.4,127.7 L186.6,127.4 L187.8,127.1 L188.9,126.8 L190.1,126.5 L191.3,126.2    L192.5,125.9 L193.6,125.7 L194.8,125.4 L196.0,125.1 L197.2,124.9 L198.3,124.6 L199.5,124.3 L200.7,124.1    L201.9,123.8 L203.1,123.6 L204.2,123.3 L205.4,123.1 L206.6,122.8 L207.8,122.6 L208.9,122.4 L210.1,122.1    L211.3,121.9 L212.5,121.7 L213.6,121.5 L214.8,121.2 L216.0,121.0 L217.2,120.8 L218.3,120.6 L219.5,120.4    L220.7,120.2 L221.9,120.0 L223.1,119.8 L224.2,119.6 L225.4,119.4 L226.6,119.2 L227.8,119.1 L228.9,118.9    L230.1,118.7 L231.3,118.5 L232.5,118.4 L233.6,118.2 L234.8,118.0 L236.0,117.9 L237.2,117.7 L238.4,117.5    L239.5,117.4 L240.7,117.2 L241.9,117.1 L243.1,117.0 L244.2,116.8 L245.4,116.7 L246.6,116.5 L247.8,116.4    L248.9,116.3 L250.1,116.1 L251.3,116.0 L252.5,115.9 L253.6,115.8 L254.8,115.7 L256.0,115.6 L257.2,115.4    L258.4,115.3 L259.5,115.2 L260.7,115.1 L261.9,115.0 L263.1,114.9 L264.2,114.9 L265.4,114.8 L266.6,114.7    L267.8,114.6 L268.9,114.5 L270.1,114.4 L271.3,114.4 L272.5,114.3 L273.7,114.2 L274.8,114.1 L276.0,114.1    L277.2,114.0 L278.4,114.0 L279.5,113.9 L280.7,113.8 L281.9,113.8 L283.1,113.7 L284.2,113.7 L285.4,113.7    L286.6,113.6 L287.8,113.6 L288.9,113.5 L290.1,113.5 L291.3,113.5 L292.5,113.4 L293.7,113.4 L294.8,113.4    L296.0,113.4 L297.2,113.4 L298.4,113.3 L299.5,113.3 L300.7,113.3 L301.9,113.3 L303.1,113.3 L304.2,113.3    L305.4,113.3 L306.6,113.3 L307.8,113.3 L309.0,113.3 L310.1,113.3 L311.3,113.3 L312.5,113.3 L313.7,113.3    L314.8,113.4 L316.0,113.4 L317.2,113.4 L318.4,113.4 L319.5,113.5 L320.7,113.5 L321.9,113.5 L323.1,113.6    L324.2,113.6 L325.4,113.6 L326.6,113.7 L327.8,113.7 L329.0,113.8 L330.1,113.8 L331.3,113.9 L332.5,113.9    L333.7,114.0 L334.8,114.0 L336.0,114.1 L337.2,114.1 L338.4,114.2 L339.5,114.3 L340.7,114.3 L341.9,114.4    L343.1,114.5 L344.3,114.5 L345.4,114.6 L346.6,114.7 L347.8,114.8 L349.0,114.9 L350.1,114.9 L351.3,115.0    L352.5,115.1 L353.7,115.2 L354.8,115.3 L356.0,115.4 L357.2,115.5 L358.4,115.6 L359.5,115.7 L360.7,115.8    L361.9,115.9 L363.1,116.0 L364.3,116.1 L365.4,116.2 L366.6,116.3 L367.8,116.4 L369.0,116.6 L370.1,116.7    L371.3,116.8 L372.5,116.9 L373.7,117.0 L374.8,117.2 L376.0,117.3 L377.2,117.4 L378.4,117.5 L379.6,117.7    L380.7,117.8 L381.9,118.0 L383.1,118.1 L384.3,118.2 L385.4,118.4 L386.6,118.5 L387.8,118.7 L389.0,118.8    L390.1,119.0 L391.3,119.1 L392.5,119.3 L393.7,119.4 L394.8,119.6 L396.0,119.7 L397.2,119.9 L398.4,120.0    L399.6,120.2 L400.7,120.4 L401.9,120.5 L403.1,120.7 L404.3,120.9 L405.4,121.0 L406.6,121.2 L407.8,121.4    L409.0,121.6 L410.1,121.7 L411.3,121.9 L412.5,122.1 L413.7,122.3 L414.9,122.5 L416.0,122.7 L417.2,122.8    L418.4,123.0 L419.6,123.2 L420.7,123.4 L421.9,123.6 L423.1,123.8 L424.3,124.0 L425.4,124.2 L426.6,124.4    L427.8,124.6 L429.0,124.8 L430.1,125.0 L431.3,125.2 L432.5,125.4 L433.7,125.6 L434.9,125.8 L436.0,126.0    L437.2,126.3 L438.4,126.5 L439.6,126.7 L440.7,126.9 L441.9,127.1 L443.1,127.3 L444.3,127.6 L445.4,127.8    L446.6,128.0 L447.8,128.2 L449.0,128.5 L450.2,128.7 L451.3,128.9 L452.5,129.2 L453.7,129.4 L454.9,129.6    L456.0,129.9 L457.2,130.1 L458.4,130.3 L459.6,130.6 L460.7,130.8 L461.9,131.1 L463.1,131.3 L464.3,131.6    L465.4,131.8 L466.6,132.0 L467.8,132.3 L469.0,132.5 L470.2,132.8 L471.3,133.0 L472.5,133.3 L473.7,133.6    L474.9,133.8 L476.0,134.1 L477.2,134.3 L478.4,134.6 L479.6,134.9 L480.7,135.1 L481.9,135.4 L483.1,135.6    L484.3,135.9 L485.5,136.2 L486.6,136.4 L487.8,136.7 L489.0,137.0 L490.2,137.3 L491.3,137.5 L492.5,137.8    L493.7,138.1 L494.9,138.4 L496.0,138.6 L497.2,138.9 L498.4,139.2 L499.6,139.5 L500.8,139.8 L501.9,140.0    L503.1,140.3 L504.3,140.6 L505.5,140.9 L506.6,141.2 L507.8,141.5 L509.0,141.8 L510.2,142.1 L511.3,142.4    L512.5,142.7 L513.7,142.9 L514.9,143.2 L516.0,143.5 L517.2,143.8 L518.4,144.1 L519.6,144.4 L520.8,144.7    L521.9,145.0 L523.1,145.3 L524.3,145.6 L525.5,146.0 L526.6,146.3 L527.8,146.6 L529.0,146.9 L530.2,147.2    L531.3,147.5 L532.5,147.8 L533.7,148.1 L534.9,148.4 L536.1,148.8 L537.2,149.1 L538.4,149.4 L539.6,149.7    L540.8,150.0 L541.9,150.3 L543.1,150.7 L544.3,151.0 L545.5,151.3 L546.6,151.6 L547.8,152.0 L549.0,152.3    L550.2,152.6 L551.3,152.9 L552.5,153.3 L553.7,153.6 L554.9,153.9 L556.1,154.3 L557.2,154.6 L558.4,154.9    L559.6,155.3 L560.8,155.6 L561.9,155.9 L563.1,156.3 L564.3,156.6 L565.5,157.0 L566.6,157.3 L567.8,157.6    L569.0,158.0 L570.2,158.3 L571.4,158.7 L572.5,159.0 L573.7,159.4 L574.9,159.7 L576.1,160.0 L577.2,160.4    L578.4,160.7 L579.6,161.1 L580.8,161.5 L581.9,161.8 L583.1,162.2 L584.3,162.5 L585.5,162.9 L586.6,163.2    L587.8,163.6 L589.0,163.9 L590.2,164.3 L591.4,164.7 L592.5,165.0 L593.7,165.4 L594.9,165.7 L596.1,166.1    L597.2,166.5 L598.4,166.8 L599.6,167.2 L600.8,167.6 L601.9,167.9 L603.1,168.3 L604.3,168.7 L605.5,169.0    L606.7,169.4 L607.8,169.8 L609.0,170.2 L610.2,170.5 L611.4,170.9 L612.5,171.3 L613.7,171.7 L614.9,172.0    L616.1,172.4 L617.2,172.8 L618.4,173.2 L619.6,173.6 L620.8,173.9 L621.9,174.3 L623.1,174.7 L624.3,175.1    L625.5,175.5 L626.7,175.9 L627.8,176.2 L629.0,176.6 L630.2,177.0 L631.4,177.4 L632.5,177.8 L633.7,178.2    L634.9,178.6 L636.1,179.0 L637.2,179.4 L638.4,179.8 L639.6,180.2 L640.8,180.6 L642.0,181.0 L643.1,181.3    L644.3,181.7 L645.5,182.1 L646.7,182.5 L647.8,182.9 L649.0,183.4 L650.2,183.8 L651.4,184.2 L652.5,184.6    L653.7,185.0 L654.9,185.4 L656.1,185.8 L657.2,186.2 L658.4,186.6 L659.6,187.0 L660.8,187.4 L662.0,187.8    L663.1,188.2 L664.3,188.7 L665.5,189.1 L666.7,189.5 L667.8,189.9 L669.0,190.3 L670.2,190.7 L671.4,191.2    L672.5,191.6 L673.7,192.0 L674.9,192.4 L676.1,192.8 L677.3,193.3 L678.4,193.7 L679.6,194.1 L680.8,194.5    L682.0,195.0 L683.1,195.4 L684.3,195.8 L685.5,196.2 L686.7,196.7 L687.8,197.1 L689.0,197.5 L690.2,198.0    L691.4,198.4 L692.5,198.8 L693.7,199.3 L694.9,199.7 L696.1,200.2 L697.3,200.6 L698.4,201.0 L699.6,201.5    L700.8,201.9 L702.0,202.3 L703.1,202.8 L704.3,203.2 L705.5,203.7 L706.7,204.1 L707.8,204.6 L709.0,205.0    L710.2,205.5 L711.4,205.9 L712.6,206.4 L713.7,206.8 L714.9,207.3 L716.1,207.7 L717.3,208.2 L718.4,208.6    L719.6,209.1 L720.8,209.5 L722.0,210.0 L723.1,210.4 L724.3,210.9 L725.5,211.4 L726.7,211.8 L727.8,212.3    L729.0,212.8 L730.2,213.2 L731.4,213.7 L732.6,214.1 L733.7,214.6 L734.9,215.1 L736.1,215.5 L737.3,216.0    L738.4,216.5 L739.6,217.0 L740.8,217.4 L742.0,217.9 L743.1,218.4 L744.3,218.8 L745.5,219.3 L746.7,219.8    L747.9,220.3 L749.0,220.8 L750.2,221.2 L751.4,221.7 L752.6,222.2 L753.7,222.7 L754.9,223.2 L756.1,223.6    L757.3,224.1 L758.4,224.6 L759.6,225.1 L760.8,225.6 L762.0,226.1 L763.1,226.6 L764.3,227.1 L765.5,227.5    L766.7,228.0 L767.9,228.5 L769.0,229.0 L770.2,229.5 L771.4,230.0 L772.6,230.5 L773.7,231.0 L774.9,231.5    L776.1,232.0 L777.3,232.5 L778.4,233.0 L779.6,233.5 L780.8,234.0 L782.0,234.5 L783.2,235.0 L784.3,235.6    L785.5,236.1 L786.7,236.6 L787.9,237.1 L789.0,237.6 L790.2,238.1 L791.4,238.6 L792.6,239.1 L793.7,239.7    L794.9,240.2 L796.1,240.7 L797.3,241.2 L798.4,241.7 L799.6,242.2 L800.8,242.8 L802.0,243.3 L803.2,243.8    L804.3,244.3 L805.5,244.9 L806.7,245.4 L807.9,245.9 L809.0,246.5 L810.2,247.0 L811.4,247.5 L812.6,248.0    L813.7,248.6 L814.9,249.1 L816.1,249.7 L817.3,250.2 L818.5,250.7 L819.6,251.3 L820.8,251.8 L822.0,252.3    L823.2,252.9 L824.3,253.4 L825.5,254.0 L826.7,254.5 L827.9,255.1 L829.0,255.6 L830.2,256.2 L831.4,256.7    L832.6,257.3 L833.7,257.8 L834.9,258.4 L836.1,258.9 L837.3,259.5 L838.5,260.0 L839.6,260.6 L840.8,261.2    L842.0,261.7 L843.2,262.3 L844.3,262.8 L845.5,263.4 L846.7,264.0 L847.9,264.5 L849.0,265.1 L850.2,265.7    L851.4,266.2 L852.6,266.8 L853.8,267.4 L854.9,267.9 L856.1,268.5 L857.3,269.1 L858.5,269.7 L859.6,270.2    L860.8,270.8 L862.0,271.4 L863.2,272.0 L864.3,272.6 L865.5,273.1 L866.7,273.7 L867.9,274.3 L869.1,274.9    L870.2,275.5 L871.4,276.1 L872.6,276.7 L873.8,277.2 L874.9,277.8 L876.1,278.4 L877.3,279.0 L878.5,279.6    L879.6,280.2 L880.8,280.8 L882.0,281.4 L883.2,282.0 L884.3,282.6 L885.5,283.2 L886.7,283.8 L887.9,284.4    L889.1,285.0 L890.2,285.6 L891.4,286.2 L892.6,286.8 L893.8,287.4 L894.9,288.1 L896.1,288.7 L897.3,289.3    L898.5,289.9 L899.6,290.5 L900.8,291.1 L902.0,291.7 L903.2,292.4 L904.4,293.0 L905.5,293.6 L906.7,294.2    L907.9,294.8 L909.1,295.5 L910.2,296.1 L911.4,296.7 L912.6,297.3 L913.8,298.0 L914.9,298.6 L916.1,299.2    L917.3,299.9 L918.5,300.5 L919.6,301.1 L920.8,301.8 L922.0,302.4 L923.2,303.0 L924.4,303.7 L925.5,304.3    L926.7,305.0 L927.9,305.6 L929.1,306.2 L930.2,306.9 L931.4,307.5 L932.6,308.2 L933.8,308.8 L934.9,309.5    L936.1,310.1 L937.3,310.8 L938.5,311.4 L939.7,312.1 L940.8,312.7 L942.0,313.4 L943.2,314.1 L944.4,314.7    L945.5,315.4 L946.7,316.0 L947.9,316.7 L949.1,317.4 L950.2,318.0 L951.4,318.7 L952.6,319.3 L953.8,320.0    L954.9,320.7 L956.1,321.3 L957.3,322.0 L958.5,322.7 L959.7,323.4 L960.8,324.0 L962.0,324.7 L963.2,325.4    L964.4,326.1 L965.5,326.7 L966.7,327.4 L967.9,328.1 L969.1,328.8 L970.2,329.4 L971.4,330.1 L972.6,330.8    L973.8,331.5 L975.0,332.2 L976.1,332.9 L977.3,333.6 L978.5,334.2 L979.7,334.9 L980.8,335.6 L982.0,336.3    L983.2,337.0 L984.4,337.7 L985.5,338.4 L986.7,339.1 L987.9,339.8 L989.1,340.5 L990.2,341.2 L991.4,341.9    L992.6,342.6 L993.8,343.3 L995.0,344.0 L996.1,344.7 L997.3,345.4 L998.5,346.1 L999.7,346.8 L1000.8,347.5    L1002.0,348.2 L1003.2,348.9 L1004.4,349.6 L1005.5,350.3 L1006.7,351.0 L1007.9,351.7 L1009.1,352.4 L1010.3,353.2    L1011.4,353.9 L1012.6,354.6 L1013.8,355.3 L1015.0,356.0 L1016.1,356.7 L1017.3,357.5 L1018.5,358.2 L1019.7,358.9    L1020.8,359.6 L1022.0,360.3 L1023.2,361.0 L1024.4,361.8 L1025.5,362.5 L1026.7,363.2 L1027.9,363.9 L1029.1,364.7    L1030.3,365.4 L1031.4,366.1 L1032.6,366.8 L1033.8,367.6 L1035.0,368.3 L1036.1,369.0 L1037.3,369.8 L1038.5,370.5    L1039.7,371.2 L1040.8,371.9 L1042.0,372.7 L1043.2,373.4 L1044.4,374.1 L1045.6,374.9 L1046.7,375.6 L1047.9,376.3    L1049.1,377.1 L1050.3,377.8 L1051.4,378.5 L1052.6,379.3 L1053.8,380.0 L1055.0,380.8 L1056.1,381.5 L1057.3,382.2    L1058.5,383.0 L1059.7,383.7 L1060.8,384.5 L1062.0,385.2 L1063.2,385.9 L1064.4,386.7 L1065.6,387.4 L1066.7,388.2    L1067.9,388.9 L1069.1,389.6 L1070.3,390.4 L1071.4,391.1 L1072.6,391.9 L1073.8,392.6 L1075.0,393.4 L1076.1,394.1    L1077.3,394.8 L1078.5,395.6 L1079.7,396.3 L1080.9,397.1 L1082.0,397.8 L1083.2,398.6 L1084.4,399.3 L1085.6,400.0    L1086.7,400.8 L1087.9,401.5 L1089.1,402.3 L1090.3,403.0 L1091.4,403.8 L1092.6,404.5 L1093.8,405.3 L1095.0,406.0    L1096.1,406.8 L1097.3,407.5 L1098.5,408.2 L1099.7,409.0 L1100.9,409.7 L1102.0,410.5 L1103.2,411.2 L1104.4,412.0    L1105.6,412.7 L1106.7,413.5 L1107.9,414.2 L1109.1,414.9 L1110.3,415.7 L1111.4,416.4 L1112.6,417.2 L1113.8,417.9    L1115.0,418.7 L1116.2,419.4 L1117.3,420.1 L1118.5,420.9 L1119.7,421.6 L1120.9,422.4 L1122.0,423.1 L1123.2,423.8    L1124.4,424.6 L1125.6,425.3 L1126.7,426.1 L1127.9,426.8 L1129.1,427.5 L1130.3,428.3 L1131.4,429.0 L1132.6,429.7    L1133.8,430.5 L1135.0,431.2 L1136.2,431.9 L1137.3,432.7 L1138.5,433.4 L1139.7,434.1 L1140.9,434.9 L1142.0,435.6    L1143.2,436.3 L1144.4,437.0 L1145.6,437.8 L1146.7,438.5 L1147.9,439.2 L1149.1,439.9 L1150.3,440.7 L1151.5,441.4    L1152.6,442.1 L1153.8,442.8 L1155.0,443.5 L1156.2,444.3 L1157.3,445.0 L1158.5,445.7 L1159.7,446.4 L1160.9,447.1    L1162.0,447.8 L1163.2,448.5 L1164.4,449.2 L1165.6,449.9 L1166.7,450.6 L1167.9,451.4 L1169.1,452.1 L1170.3,452.8    L1171.5,453.5 L1172.6,454.2 L1173.8,454.8 L1175.0,455.5 L1176.2,456.2 L1177.3,456.9 L1178.5,457.6 L1179.7,458.3    L1180.9,459.0 L1182.0,459.7 L1183.2,460.4 L1184.4,461.0 L1185.6,461.7 L1186.8,462.4 L1187.9,463.1 L1189.1,463.7    L1190.3,464.4 L1191.5,465.1 L1192.6,465.8 L1193.8,466.4 L1195.0,467.1 L1196.2,467.7 L1197.3,468.4 L1198.5,469.1    L1199.7,469.7 L1200.9,470.4 L1202.0,471.0 L1203.2,471.7 L1204.4,472.3 L1205.6,472.9 L1206.8,473.6 L1207.9,474.2    L1209.1,474.9 L1210.3,475.5 L1211.5,476.1 L1212.6,476.7 L1213.8,477.4 L1215.0,478.0 L1216.2,478.6 L1217.3,479.2    L1218.5,479.8 L1219.7,480.4 L1220.9,481.1 L1222.1,481.7 L1223.2,482.3 L1224.4,482.9 L1225.6,483.5 L1226.8,484.0    L1227.9,484.6 L1229.1,485.2 L1230.3,485.8 L1231.5,486.4 L1232.6,487.0 L1233.8,487.5 L1235.0,488.1 L1236.2,488.7    L1237.3,489.2 L1238.5,489.8 L1239.7,490.3 L1240.9,490.9 L1242.1,491.4 L1243.2,492.0 L1244.4,492.5 L1245.6,493.0    L1246.8,493.6 L1247.9,494.1 L1249.1,494.6 L1250.3,495.2 L1251.5,495.7 L1252.6,496.2 L1253.8,496.7 L1255.0,497.2     h0.01"/></g>
	</g>
	<g id="gnuplot_plot_2"><title>gnuplot_plot_2</title>
<g style="fill:none; color:white; stroke:rgb( 93, 109, 126); stroke-width:3.00; stroke-linecap:butt; stroke-linejoin:miter">
</g>
<g style="fill:none; color:green; stroke:currentColor; stroke-width:3.00; stroke-linecap:butt; stroke-linejoin:miter">
	<path stroke="rgb(185,  95,  14)" d="M79.5,169.5 L275.4,62.8 L471.3,92.1 L667.3,219.8 L863.2,189.2 L1059.1,413.7 L1255.0,497.2  h0.01"/>	<use xlink:href="#gpPt6" transform="translate(79.5,169.5) scale(13.50)" color="rgb(185,  95,  14)"/>
	<use xlink:href="#gpPt6" transform="translate(275.4,62.8) scale(13.50)" color="rgb(185,  95,  14)"/>
	<use xlink:href="#gpPt6" transform="translate(471.3,92.1) scale(13.50)" color="rgb(185,  95,  14)"/>
	<use xlink:href="#gpPt6" transform="translate(667.3,219.8) scale(13.50)" color="rgb(185,  95,  14)"/>
	<use xlink:href="#gpPt6" transform="translate(863.2,189.2) scale(13.50)" color="rgb(185,  95,  14)"/>
	<use xlink:href="#gpPt6" transform="translate(1059.1,413.7) scale(13.50)" color="rgb(185,  95,  14)"/>
	<use xlink:href="#gpPt6" transform="translate(1255.0,497.2) scale(13.50)" color="rgb(185,  95,  14)"/>
</g>
	</g>
<g style="fill:none; color:red; stroke:currentColor; stroke-width:3.00; stroke-linecap:butt; stroke-linejoin:miter">
</g>
</g>
</svg>